<svg width="80" height="48" viewBox="0 0 80 48" fill="none" xmlns="http://www.w3.org/2000/svg">
  <path d="M24.0172 21.3375C24.0172 22.0875 24.0797 22.6781 24.1922 23.1094C24.3172 23.5406 24.4797 24.0094 24.7047 24.5031C24.7922 24.6781 24.8297 24.8531 24.8297 25.0031C24.8297 25.2156 24.7047 25.4281 24.4422 25.6406L23.0422 26.5656C22.8672 26.6781 22.6922 26.7406 22.5422 26.7406C22.3547 26.7406 22.1672 26.6531 21.9797 26.4906C21.7922 26.2781 21.6172 26.0531 21.4547 25.8281C21.2922 25.5906 21.1297 25.3406 20.9547 25.0531C20.7922 24.7656 20.6297 24.4781 20.4672 24.1781C19.3922 25.4781 18.0797 26.1281 16.5297 26.1281C15.4547 26.1281 14.6047 25.8156 14.0047 25.1781C13.4047 24.5406 13.1047 23.6781 13.1047 22.5781C13.1047 21.4031 13.4797 20.4531 14.2422 19.7281C15.0047 19.0031 16.0547 18.6406 17.4047 18.6406C17.8922 18.6406 18.3922 18.6781 18.9172 18.7531C19.4422 18.8281 19.9797 18.9406 20.5422 19.0781V17.8156C20.5422 16.7906 20.3297 16.0781 19.9172 15.6781C19.4922 15.2781 18.7922 15.0781 17.7922 15.0781C17.2922 15.0781 16.7797 15.1406 16.2547 15.2781C15.7297 15.4156 15.2172 15.5781 14.7172 15.7906C14.4922 15.9031 14.3172 15.9656 14.2047 15.9906C14.0922 16.0156 14.0047 16.0281 13.9297 16.0281C13.7047 16.0281 13.5922 15.8781 13.5922 15.5656V14.6781C13.5922 14.4406 13.6172 14.2656 13.6797 14.1531C13.7422 14.0406 13.8547 13.9281 14.0422 13.8156C14.5422 13.5156 15.1547 13.2781 15.8797 13.0781C16.6047 12.8656 17.3797 12.7656 18.2047 12.7656C19.7922 12.7656 20.9797 13.1406 21.7672 13.9031C22.5422 14.6656 22.9297 15.8031 22.9297 17.3156V21.3375H24.0172ZM17.1797 23.9031C17.6547 23.9031 18.1422 23.8031 18.6547 23.6031C19.1672 23.4031 19.6172 23.0781 19.9797 22.6406C20.2047 22.3531 20.3672 22.0406 20.4547 21.6906C20.5422 21.3406 20.5922 20.9156 20.5922 20.4156V20.9531C20.1297 20.8281 19.6547 20.7281 19.1797 20.6656C18.7047 20.6031 18.2422 20.5656 17.7922 20.5656C16.9547 20.5656 16.3297 20.7406 15.9172 21.0906C15.5047 21.4406 15.2922 21.9281 15.2922 22.5656C15.2922 23.1656 15.4422 23.6156 15.7547 23.9156C16.0547 24.2406 16.5297 24.3906 17.1797 24.3906V23.9031ZM30.4172 26.5906C30.1297 26.5906 29.9297 26.5406 29.8047 26.4281C29.6797 26.3281 29.5672 26.1156 29.4672 25.8281L25.8047 14.3781C25.7047 14.0781 25.6547 13.8781 25.6547 13.7656C25.6547 13.5281 25.7672 13.4031 25.9922 13.4031H27.5297C27.8297 13.4031 28.0297 13.4531 28.1422 13.5656C28.2672 13.6656 28.3672 13.8781 28.4672 14.1656L31.0922 24.0156L33.5297 14.1656C33.6172 13.8656 33.7172 13.6656 33.8422 13.5656C33.9672 13.4656 34.1797 13.4031 34.4672 13.4031H35.6797C35.9797 13.4031 36.1797 13.4531 36.3047 13.5656C36.4297 13.6656 36.5422 13.8781 36.6172 14.1656L39.0922 24.1656L41.7922 14.1656C41.8922 13.8656 42.0047 13.6656 42.1172 13.5656C42.2422 13.4656 42.4422 13.4031 42.7297 13.4031H44.1797C44.4047 13.4031 44.5422 13.5156 44.5422 13.7656C44.5422 13.8406 44.5297 13.9156 44.5172 14.0031C44.5047 14.0906 44.4797 14.1906 44.4297 14.3281L40.6922 25.8281C40.5922 26.1281 40.4797 26.3281 40.3547 26.4281C40.2297 26.5281 40.0172 26.5906 39.7422 26.5906H38.4547C38.1547 26.5906 37.9422 26.5406 37.8172 26.4406C37.6922 26.3406 37.5797 26.1406 37.5047 25.8531L35.0922 16.3781L32.6922 25.8406C32.6172 26.1406 32.5047 26.3406 32.3797 26.4406C32.2547 26.5406 32.0297 26.5906 31.7422 26.5906H30.4172ZM51.0547 26.8781C50.2297 26.8781 49.4172 26.7781 48.6297 26.5781C47.8422 26.3781 47.2297 26.1531 46.8047 25.8906C46.5797 25.7656 46.4172 25.6281 46.3547 25.4906C46.2922 25.3531 46.2547 25.2031 46.2547 25.0656V24.1531C46.2547 23.8406 46.3797 23.6906 46.6172 23.6906C46.7047 23.6906 46.7922 23.7031 46.8797 23.7281C46.9672 23.7531 47.0922 23.7906 47.2297 23.8406C47.8047 24.1031 48.4297 24.3156 49.0922 24.4656C49.7672 24.6156 50.4172 24.6906 51.0922 24.6906C52.0922 24.6906 52.8672 24.5156 53.4172 24.1656C53.9672 23.8156 54.2547 23.3031 54.2547 22.6531C54.2547 22.1906 54.1047 21.8156 53.8047 21.5156C53.5047 21.2156 52.9422 20.9531 52.1172 20.7156L49.8047 20.0531C48.6297 19.7156 47.7672 19.2156 47.2297 18.5531C46.6922 17.9031 46.4172 17.1781 46.4172 16.3906C46.4172 15.7656 46.5547 15.2156 46.8297 14.7406C47.1047 14.2656 47.4672 13.8656 47.9172 13.5406C48.3672 13.2156 48.8922 12.9656 49.4922 12.8031C50.0922 12.6406 50.7297 12.5656 51.3922 12.5656C51.7672 12.5656 52.1547 12.5906 52.5422 12.6406C52.9297 12.6906 53.2922 12.7531 53.6422 12.8281C53.9797 12.9156 54.2922 13.0031 54.5797 13.1031C54.8672 13.2031 55.0922 13.3031 55.2547 13.4031C55.4547 13.5156 55.6047 13.6406 55.6922 13.7781C55.7797 13.9031 55.8297 14.0656 55.8297 14.2656V15.1156C55.8297 15.4281 55.7047 15.5906 55.4672 15.5906C55.3547 15.5906 55.1922 15.5531 54.9797 15.4781C54.3297 15.1781 53.6297 14.9406 52.8797 14.7656C52.1297 14.5906 51.4047 14.5031 50.6922 14.5031C49.8047 14.5031 49.1047 14.6531 48.6172 14.9656C48.1297 15.2781 47.8797 15.7531 47.8797 16.4031C47.8797 16.8656 48.0422 17.2531 48.3672 17.5656C48.6922 17.8781 49.3047 18.1656 50.1922 18.4156L52.4547 19.0781C53.6047 19.4156 54.4422 19.8906 54.9547 20.5031C55.4672 21.1156 55.7172 21.8281 55.7172 22.6406C55.7172 23.2781 55.5797 23.8531 55.3047 24.3531C55.0297 24.8531 54.6547 25.2781 54.1797 25.6281C53.7047 25.9781 53.1422 26.2406 52.4922 26.4281C51.8172 26.7281 51.0672 26.8781 50.2297 26.8781H51.0547Z" fill="white"/>
  <path d="M51.9797 33.9031C47.0547 37.5906 39.7922 39.6531 33.5797 39.6531C24.8047 39.6531 16.9922 36.4781 11.0547 30.9031C10.5922 30.4781 11.0047 29.9031 11.5547 30.2281C17.9547 34.0531 25.9172 36.3781 34.1922 36.3781C39.7422 36.3781 45.8297 35.1781 51.4172 32.6906C52.2297 32.3156 52.9047 33.1781 51.9797 33.9031Z" fill="#FF9900"/>
  <path d="M54.1797 31.3781C53.5297 30.5406 49.8547 30.9781 48.2922 31.1656C47.7922 31.2281 47.7047 30.7906 48.1547 30.4781C50.9172 28.5406 55.4797 29.1406 56.0297 29.8281C56.5797 30.5281 55.8922 35.0531 53.3172 37.2281C52.8922 37.5906 52.4922 37.4031 52.6797 36.9406C53.2922 35.4781 54.8297 32.2156 54.1797 31.3781Z" fill="#FF9900"/>
</svg>